Coordinates
version=1
nRows=17
nColumns=36
inDegrees=yes

Units are S.I. units (second, meters, Newtons, ...)
If the header above contains a line with 'inDegrees', this indicates whether rotational values are in degrees (yes) or radians (no).

endheader
time	pelvis_tilt	pelvis_list	pelvis_rotation	pelvis_tx	pelvis_ty	pelvis_tz	hip_flexion_r	hip_adduction_r	hip_rotation_r	knee_angle_r	knee_angle_r_beta	ankle_angle_r	subtalar_angle_r	mtp_angle_r	hip_flexion_l	hip_adduction_l	hip_rotation_l	knee_angle_l	knee_angle_l_beta	ankle_angle_l	subtalar_angle_l	mtp_angle_l	lumbar_extension	lumbar_bending	lumbar_rotation	arm_flex_r	arm_add_r	arm_rot_r	elbow_flex_r	pro_sup_r	arm_flex_l	arm_add_l	arm_rot_l	elbow_flex_l	pro_sup_l
      0.99000000	     -4.42098793	      0.31938430	      4.04032566	      1.04486229	      0.94769892	     -0.18457833	     30.98730979	      0.19579933	      4.41664779	     23.19286120	      0.40479179	     -3.01054611	     -9.69472195	     -7.29895253	     -1.56335976	      5.26975693	      0.62746707	      6.94481868	      0.12120995	     12.61694889	      3.42278418	     -7.29895253	     -7.78498516	     -3.33531290	     -9.05695935	    -15.16417267	    -12.62930732	     12.33660769	     28.03545294	    107.00723669	     10.02087751	    -11.01509251	     -2.68596192	     66.13574369	    103.02171154
      1.00000000	     -4.83173871	      0.87342835	      4.31493628	      1.05681444	      0.94530533	     -0.18473903	     31.30806846	     -0.64285516	      3.86737054	     19.53715648	      0.34098771	     -2.60615846	     -9.24290917	     -7.29984409	     -2.09387813	      5.81179066	      0.44607148	      6.71590928	      0.11721473	     12.89954395	      3.64064281	     -7.29984409	     -7.29686882	     -4.00747129	     -9.30577630	    -16.23161411	    -12.56248660	     12.20830342	     27.96144638	    106.98717767	     10.71944996	    -11.10843839	     -2.62684119	     66.89122916	    103.08201315
      1.01000000	     -4.48738309	      0.81422565	      4.60282016	      1.06897706	      0.94387534	     -0.18474487	     30.34800016	     -0.78529633	      3.31915867	     15.17964402	      0.26493477	     -2.15549489	     -7.09876470	     -7.31567756	     -3.39440320	      5.50895828	      0.03856539	      6.58062567	      0.11485358	     14.09155441	      5.89616309	     -7.31567756	     -7.81343120	     -3.76173240	     -9.21663018	    -17.84464723	    -12.18121474	      8.57101624	     29.57944627	    106.75122649	     11.85892082	    -11.28209519	     -1.76428277	     67.42718419	    102.80555148
      1.02000000	     -4.48041103	      0.99983881	      4.90633305	      1.08120668	      0.94183702	     -0.18478870	     29.91369872	     -1.16381652	      2.51757465	     11.43422279	      0.19956484	     -1.99114970	     -6.09571810	     -7.31877939	     -4.38630920	      5.57716280	      0.27856101	      6.35829092	      0.11097311	     14.48205163	      6.11913260	     -7.31877939	     -7.82585456	     -3.93170968	     -9.62523989	    -18.60123898	    -12.17130270	      8.19885234	     29.74840539	    106.79494970	     12.46117731	    -11.48709826	     -1.59273963	     68.08362628	    102.80512687
      1.03000000	     -4.57997985	      1.20123764	      5.24876837	      1.09340970	      0.93950594	     -0.18478064	     29.65945486	     -1.53093955	      1.68013551	      8.20450650	      0.14319565	     -1.66751424	     -5.22360408	     -7.32092763	     -5.13814616	      5.64559403	      0.60987947	      6.40025356	      0.11170550	     14.80964328	      6.40187969	     -7.32092763	     -7.75016350	     -4.11291833	    -10.02077870	    -19.34431083	    -12.11180897	      7.78960660	     29.91832617	    106.78799709	     13.03332195	    -11.64311937	     -1.57989754	     68.73230452	    102.80658433
      1.04000000	     -4.53512629	      1.30629564	      5.58140740	      1.10580557	      0.93724637	     -0.18472591	     29.28251059	     -1.74794269	      0.58665547	      5.47251555	      0.09551341	     -1.38161901	     -4.39567243	     -7.32340773	     -6.00237451	      5.58104856	      0.91961987	      6.52245583	      0.11383833	     15.31592764	      6.66008771	     -7.32340773	     -7.82733334	     -4.15395675	    -10.47089351	    -19.97774910	    -12.04389211	      7.14203117	     30.18132794	    106.73984151	     13.47918124	    -11.78899666	     -1.62750566	     69.35175908	    102.78256949
      1.05000000	     -4.50378032	      1.35772843	      5.91499780	      1.11824799	      0.93491920	     -0.18455922	     29.04195089	     -1.86391699	     -0.59707215	      3.48019944	      0.06074094	     -1.05823845	     -3.80814295	     -7.32632211	     -6.75768546	      5.43910234	      1.24164737	      6.83408786	      0.11927733	     15.89472329	      6.86424592	     -7.32632211	     -7.88040916	     -4.13434223	    -10.93083420	    -20.50545855	    -11.93728298	      6.28066864	     30.47911019	    106.65222777	     13.82648536	    -11.93106035	     -1.77215191	     69.92704693	    102.72953256
      1.06000000	     -4.68273720	      1.53560607	      6.03884919	      1.13079573	      0.93227112	     -0.18401618	     29.26751949	     -1.97946230	     -1.46040678	      2.47791456	      0.04324777	     -0.68665259	     -3.95606927	     -7.32688763	     -7.26487936	      5.47383735	      1.36187347	      7.17183762	      0.12517218	     16.01205965	      6.87329090	     -7.32688763	     -7.65375626	     -4.35129156	    -11.04249667	    -20.94144520	    -11.83674121	      6.12867321	     30.42115207	    106.62680677	     14.16123342	    -11.96340510	     -1.88430496	     70.30227130	    102.73922325
      1.07000000	     -4.61968236	      1.34449471	      6.52001430	      1.14332005	      0.93007848	     -0.18383594	     29.13996646	     -1.87608902	     -2.71035517	      1.92585282	      0.03361247	     -0.37442602	     -3.96493929	     -7.32887781	     -7.74026219	      5.03206376	      1.99016452	      8.08650972	      0.14113622	     16.67343005	      6.78234999	     -7.32887781	     -7.74556905	     -4.02617021	    -11.67102220	    -21.15741118	    -11.73726887	      5.33510068	     30.55875458	    106.49462812	     14.29892967	    -12.07683906	     -2.12060320	     70.78816373	    102.70733265
      1.08000000	     -4.62609816	      1.26422342	      6.79343922	      1.15608484	      0.92780322	     -0.18337329	     29.22140284	     -1.79354201	     -3.63989931	      2.14510629	      0.03743917	     -0.11865963	     -4.32410536	     -7.33026853	     -8.18754411	      4.73603943	      2.26470081	      8.87389243	      0.15487864	     16.97486840	      6.64774305	     -7.33026853	     -7.71307962	     -3.86394168	    -11.97705001	    -21.35080243	    -11.62211965	      4.79797114	     30.55261564	    106.39285163	     14.38554330	    -12.06305240	     -2.39717671	     71.21264356	    102.68883881
      1.09000000	     -4.75425648	      1.09552507	      7.02395734	      1.16910602	      0.92547935	     -0.18276514	     29.49555376	     -1.62346487	     -4.42172761	      2.95969163	      0.05165636	     -0.08505076	     -4.65556223	     -7.33525388	     -8.38705023	      4.36411868	      2.49767257	      9.91672432	      0.17307949	     17.50710038	      6.46029381	     -7.33525388	     -7.49879977	     -3.60983616	    -12.54926052	    -21.34530236	    -11.37725517	      3.28697325	     30.74647332	    106.12033027	     13.92542435	    -12.08814472	     -3.18865346	     71.86080279	    102.57601095
      1.10000000	     -4.66306228	      0.92893856	      7.18396135	      1.18234035	      0.92353101	     -0.18201088	     29.59049659	     -1.40405167	     -5.03069707	      4.26394636	      0.07441990	     -0.20764681	     -5.31972755	     -7.33705973	     -8.82412785	      3.96714805	      2.67544866	     10.94138321	      0.19096316	     17.52996950	      6.14515054	     -7.33705973	     -7.50160576	     -3.36116312	    -12.69890653	    -21.32554405	    -11.26848194	      2.94329549	     30.65977391	    106.05372598	     13.79374676	    -12.05366165	     -3.40377103	     72.01244048	    102.54046731
      1.11000000	     -4.72580149	      0.74130874	      7.32164147	      1.19572562	      0.92150091	     -0.18116769	     29.90120037	     -1.17546470	     -5.46654970	      5.90154033	      0.10300131	     -0.70528226	     -6.03017699	     -7.33930555	     -8.98987247	      3.58241468	      2.90555902	     12.18265218	      0.21262739	     17.50699199	      5.62738296	     -7.33930555	     -7.30212972	     -3.11345408	    -12.92646893	    -21.15928097	    -11.12877414	      2.48168013	     30.52272200	    105.96267343	     13.40625210	    -12.01361607	     -3.78804221	     72.21539197	    102.49476643
      1.12000000	     -4.61005719	      0.52968161	      7.34140533	      1.20944031	      0.91989176	     -0.18016788	     29.89602383	     -0.81906701	     -5.40789035	      7.44692176	      0.12997330	     -1.35320366	     -6.33507049	     -7.34015135	     -9.42366837	      3.17988267	      3.26349687	     13.28090358	      0.23179550	     17.23892399	      5.34037609	     -7.34015135	     -7.27468884	     -2.80600450	    -12.95209137	    -20.94365103	    -11.04486763	      2.30123168	     30.43234750	    105.92528145	     13.01663329	    -11.98254225	     -3.96999438	     72.18461083	    102.46498750
      1.13000000	     -4.86516037	      0.34839857	      7.45992479	      1.22321025	      0.91798890	     -0.17917047	     30.42798081	     -0.57820435	     -5.72986778	      9.22582896	      0.16102109	     -2.81225431	     -7.64894588	     -7.34300044	     -9.13080863	      2.85132589	      3.50218861	     15.01854097	      0.26212299	     16.70255404	      4.13859744	     -7.34300044	     -6.80094454	     -2.60812054	    -13.24784971	    -20.58654595	    -10.87044407	      1.77425233	     30.08592078	    105.82432888	     12.15738802	    -11.88346610	     -4.61212650	     72.37925830	    102.39034588
      1.14000000	     -4.92628087	      0.15384792	      7.47394340	      1.23711755	      0.91674612	     -0.17792947	     30.53175398	     -0.14704858	     -5.19524786	     10.56525816	      0.18439854	     -4.97000368	     -9.65042297	     -7.34880159	     -9.13479579	      2.55207794	      4.13475375	     16.53248012	      0.28854621	     15.59753201	      2.51344395	     -7.34880159	     -6.57384854	     -2.36914767	    -13.50666336	    -19.98852122	    -10.69407455	      1.49120031	     29.72263825	    105.79747546	     11.21508943	    -11.79434138	     -5.30594090	     72.49977233	    102.25514333
      1.15000000	     -4.74830522	     -0.13999278	      7.47790502	      1.25126241	      0.91610063	     -0.17678719	     30.36807769	      0.36036006	     -5.09789219	     11.94807260	      0.20853321	     -6.17340298	    -10.36511570	     -7.35079795	     -9.18188791	      2.07119062	      4.32980073	     18.38557523	      0.32088882	     14.51307469	      1.77006979	     -7.35079795	     -6.57785373	     -1.96302128	    -13.43042029	    -19.54046840	    -10.58259461	      1.47749354	     29.53552854	    105.80213363	     10.55465067	    -11.66823515	     -5.42649627	     72.14885323	    102.17570278
